<?xml version="1.0" standalone="no"?>
<!DOCTYPE svg PUBLIC "-//W3C//DTD SVG 20010904//EN"
 "http://www.w3.org/TR/2001/REC-SVG-20010904/DTD/svg10.dtd">
<svg version="1.0" xmlns="http://www.w3.org/2000/svg"
 width="401.000000pt" height="401.000000pt" viewBox="0 0 401.000000 401.000000"
 preserveAspectRatio="xMidYMid meet">
<metadata>
Created by potrace 1.11, written by Peter Selinger 2001-2013
</metadata>
<g transform="translate(0.000000,401.000000) scale(0.100000,-0.100000)"
fill="#000000" stroke="none">
<path d="M1410 3670 l0 -180 1300 0 1300 0 0 180 0 180 -1300 0 -1300 0 0
-180z"/>
<path d="M1007 3068 c-8 -24 -54 -149 -100 -278 -425 -1174 -550 -1518 -557
-1535 -5 -11 -52 -141 -105 -290 -53 -148 -105 -292 -116 -320 -52 -139 -118
-322 -121 -338 -2 -16 23 -28 161 -78 90 -33 167 -56 171 -52 4 4 17 37 30 73
12 36 44 123 70 195 44 119 113 311 357 985 46 129 88 244 93 255 5 11 77 209
160 440 83 231 155 429 159 440 5 11 22 56 38 100 l29 80 1217 3 1217 2 0 180
0 180 -1344 0 -1343 0 -16 -42z"/>
<path d="M1410 2210 l0 -180 970 0 970 0 0 180 0 180 -970 0 -970 0 0 -180z"/>
</g>
</svg>
