<svg version="1" xmlns="http://www.w3.org/2000/svg" width="534.667" height="534.667" viewBox="0 0 401.000000 401.000000"><path d="M141 34v18h260V16H141v18zM100.7 94.2c-.8 2.4-5.4 14.9-10 27.8-42.5 117.4-55 151.8-55.7 153.5-.5 1.1-5.2 14.1-10.5 29-5.3 14.8-10.5 29.2-11.6 32C7.7 350.4 1.1 368.7.8 370.3c-.2 1.6 2.3 2.8 16.1 7.8 9 3.3 16.7 5.6 17.1 5.2.4-.4 1.7-3.7 3-7.3 1.2-3.6 4.4-12.3 7-19.5 4.4-11.9 11.3-31.1 35.7-98.5 4.6-12.9 8.8-24.4 9.3-25.5.5-1.1 7.7-20.9 16-44s15.5-42.9 15.9-44c.5-1.1 2.2-5.6 3.8-10l2.9-8 121.7-.3L371 126V90H102.3l-1.6 4.2z"/><path d="M141 180v18h194v-36H141v18z"/></svg>